# xmcd CD database file
#
# Track frame offsets:
#	150
#	38102
#	53493
#	66380
#	80557
#	93436
#	107956
#	123048
#	177120
#	190059
#	250751
#	285875
#	300456
#	314217
#
# Disc length: 4597 seconds
#
# Revision: 0
# Processed by: cddbd v1.5.2PL0 Copyright (c) Steve Scherf et al.
# Submitted via: CDex 1.70beta2
#
DISCID=b711f30e
DTITLE=Oscar Peterson - The Soul Of Oscar Peterson - CD1
DYEAR=2008
DGENRE=Jazz
TTITLE0=Carnegie Blues
TTITLE1=My Heart Stood Still
TTITLE2=Debut
TTITLE3=Little White Lies
TTITLE4=Salute To Garner
TTITLE5=Love For Sale
TTITLE6=Willow Weep For Me
TTITLE7=The Astaire Blues
TTITLE8=Night And Day
TTITLE9=Funky Blues
TTITLE10=Just You, Just Me 
TTITLE11=It Ain't Necessarily So
TTITLE12=Blue Skies
TTITLE13=Tea For Two
EXTD=YEAR: 2008
EXTT0=
EXTT1=
EXTT2=
EXTT3=
EXTT4=
EXTT5=
EXTT6=
EXTT7=
EXTT8=
EXTT9=
EXTT10=
EXTT11=
EXTT12=
EXTT13=
PLAYORDER=
